<?xml version="1.0" encoding="UTF-8" standalone="no"?>
<!-- Generator: Adobe Illustrator 19.1.0, SVG Export Plug-In . SVG Version: 6.00 Build 0)  -->

<svg
   version="1.1"
   id="Layer_1"
   x="0px"
   y="0px"
   width="172.271"
   height="172.16701"
   viewBox="0 0 172.271 172.16701"
   xml:space="preserve"
   sodipodi:docname="bigcommerce-logomark-whitebg.svg"
   inkscape:version="1.3.2 (091e20e, 2023-11-25, custom)"
   xmlns:inkscape="http://www.inkscape.org/namespaces/inkscape"
   xmlns:sodipodi="http://sodipodi.sourceforge.net/DTD/sodipodi-0.dtd"
   xmlns="http://www.w3.org/2000/svg"
   xmlns:svg="http://www.w3.org/2000/svg"><defs
   id="defs3"><inkscape:path-effect
     effect="fillet_chamfer"
     id="path-effect3"
     is_visible="true"
     lpeversion="1"
     nodesatellites_param="F,0,0,1,0,6.3303176,0,1 @ F,0,0,1,0,6.3303176,0,1 @ F,0,0,1,0,5.4806738,0,1 @ F,0,0,1,0,6.3303176,0,1"
     radius="0"
     unit="px"
     method="auto"
     mode="F"
     chamfer_steps="1"
     flexible="false"
     use_knot_distance="true"
     apply_no_radius="true"
     apply_with_radius="true"
     only_selected="false"
     hide_knots="false" /><inkscape:path-effect
     effect="fillet_chamfer"
     id="path-effect2"
     is_visible="true"
     lpeversion="1"
     nodesatellites_param="F,0,0,1,0,0,0,1 @ F,0,0,1,0,0,0,1 @ F,0,0,1,0,0,0,1 @ F,0,0,1,0,0,0,1"
     radius="0"
     unit="px"
     method="auto"
     mode="F"
     chamfer_steps="1"
     flexible="false"
     use_knot_distance="true"
     apply_no_radius="true"
     apply_with_radius="true"
     only_selected="false"
     hide_knots="false" /></defs><sodipodi:namedview
   id="namedview3"
   pagecolor="#ffffff"
   bordercolor="#000000"
   borderopacity="0.25"
   inkscape:showpageshadow="2"
   inkscape:pageopacity="0.0"
   inkscape:pagecheckerboard="0"
   inkscape:deskcolor="#d1d1d1"
   inkscape:export-bgcolor="#ffffffff"
   inkscape:zoom="4.7078552"
   inkscape:cx="78.698258"
   inkscape:cy="79.335491"
   inkscape:window-width="1920"
   inkscape:window-height="1001"
   inkscape:window-x="-9"
   inkscape:window-y="1341"
   inkscape:window-maximized="1"
   inkscape:current-layer="Layer_1" />
<style
   type="text/css"
   id="style1">
	.st0{fill:#34313F;}
</style>
<path
   style="fill:#ffffff;stroke:#000000;stroke-width:0;stroke-linecap:round;stroke-linejoin:round;stroke-dasharray:none;fill-opacity:1"
   id="rect1"
   width="169.50865"
   height="169.50865"
   x="1.8811747"
   y="1.8811747"
   inkscape:label="rect1"
   sodipodi:type="rect"
   inkscape:path-effect="#path-effect3"
   d="M 8.2114923,1.8811747 H 165.05951 a 6.3303176,6.3303176 45 0 1 6.33032,6.3303176 V 165.90915 a 5.4806738,5.4806738 135 0 1 -5.48068,5.48068 H 8.2114923 A 6.3303176,6.3303176 45 0 1 1.8811747,165.05951 V 8.2114923 A 6.3303176,6.3303176 135 0 1 8.2114923,1.8811747 Z" /><g
   id="g3"
   transform="matrix(0.97608582,0,0,0.97606937,-211.85727,-272.2355)"
   sodipodi:insensitive="true">
	<path
   class="st0"
   d="m 310.3,379.2 h 21.1 c 6,0 9.8,-3.3 9.8,-8.6 0,-5 -3.8,-8.6 -9.8,-8.6 h -21.1 c -0.7,0 -1.3,0.6 -1.3,1.2 V 378 c 0.1,0.7 0.6,1.2 1.3,1.2 z"
   id="path1" />
	<path
   class="st0"
   d="m 310.3,413.3 h 21.8 c 6.7,0 10.7,-3.4 10.7,-9.4 0,-5.2 -3.8,-9.4 -10.7,-9.4 h -21.8 c -0.7,0 -1.3,0.6 -1.3,1.2 V 412 c 0.1,0.8 0.6,1.3 1.3,1.3 z"
   id="path2" />
	<path
   class="st0"
   d="m 387.5,284.4 -62.4,62.2 h 10.2 c 15.9,0 25.3,10 25.3,20.9 0,8.6 -5.8,14.9 -12,17.7 -1,0.4 -1,1.8 0.1,2.2 7.2,2.8 12.3,10.3 12.3,19.1 0,12.4 -8.3,22.3 -24.4,22.3 h -44.2 c -0.7,0 -1.3,-0.6 -1.3,-1.2 v -47.1 l -68.5,68.2 c -0.9,0.9 -0.3,2.5 1,2.5 h 164.7 c 0.6,0 1.1,-0.5 1.1,-1.1 V 285.3 c 0.3,-1.1 -1.1,-1.7 -1.9,-0.9 z"
   id="path3" />
</g>
</svg>
