<?xml version="1.0" encoding="UTF-8" standalone="no"?>
<!-- Generator: Adobe Illustrator 19.1.0, SVG Export Plug-In . SVG Version: 6.00 Build 0)  -->

<svg
   version="1.1"
   id="Layer_1"
   x="0px"
   y="0px"
   width="167.27115"
   height="167.16742"
   viewBox="0 0 167.27115 167.16742"
   xml:space="preserve"
   sodipodi:docname="bigcommerce-logomark-whitebg.svg"
   xmlns:inkscape="http://www.inkscape.org/namespaces/inkscape"
   xmlns:sodipodi="http://sodipodi.sourceforge.net/DTD/sodipodi-0.dtd"
   xmlns="http://www.w3.org/2000/svg"
   xmlns:svg="http://www.w3.org/2000/svg"><defs
   id="defs3" /><sodipodi:namedview
   id="namedview3"
   pagecolor="#ffffff"
   bordercolor="#000000"
   borderopacity="0.25"
   inkscape:showpageshadow="2"
   inkscape:pageopacity="0.0"
   inkscape:pagecheckerboard="0"
   inkscape:deskcolor="#d1d1d1"
   inkscape:export-bgcolor="#ffffffff" />
<style
   type="text/css"
   id="style1">
	.st0{fill:#34313F;}
</style>
<g
   id="g3"
   transform="translate(-222.17029,-284.03259)">
	<path
   class="st0"
   d="m 310.3,379.2 h 21.1 c 6,0 9.8,-3.3 9.8,-8.6 0,-5 -3.8,-8.6 -9.8,-8.6 h -21.1 c -0.7,0 -1.3,0.6 -1.3,1.2 V 378 c 0.1,0.7 0.6,1.2 1.3,1.2 z"
   id="path1" />
	<path
   class="st0"
   d="m 310.3,413.3 h 21.8 c 6.7,0 10.7,-3.4 10.7,-9.4 0,-5.2 -3.8,-9.4 -10.7,-9.4 h -21.8 c -0.7,0 -1.3,0.6 -1.3,1.2 V 412 c 0.1,0.8 0.6,1.3 1.3,1.3 z"
   id="path2" />
	<path
   class="st0"
   d="m 387.5,284.4 -62.4,62.2 h 10.2 c 15.9,0 25.3,10 25.3,20.9 0,8.6 -5.8,14.9 -12,17.7 -1,0.4 -1,1.8 0.1,2.2 7.2,2.8 12.3,10.3 12.3,19.1 0,12.4 -8.3,22.3 -24.4,22.3 h -44.2 c -0.7,0 -1.3,-0.6 -1.3,-1.2 v -47.1 l -68.5,68.2 c -0.9,0.9 -0.3,2.5 1,2.5 h 164.7 c 0.6,0 1.1,-0.5 1.1,-1.1 V 285.3 c 0.3,-1.1 -1.1,-1.7 -1.9,-0.9 z"
   id="path3" />
</g>
</svg>
